# Blender v2.74 (sub 0) OBJ File: ''
# www.blender.org
mtllib gizmo-handlerotate.mtl
o Torus
v 0.310000 0.000000 0.000000
v 0.307100 -0.007100 0.000000
v 0.300000 -0.010000 0.000000
v 0.292900 -0.007100 0.000000
v 0.290000 0.000000 0.000000
v 0.292900 0.007100 -0.000000
v 0.300000 0.010000 -0.000000
v 0.307100 0.007100 -0.000000
v 0.299400 0.000000 0.080200
v 0.296600 -0.007100 0.079500
v 0.289800 -0.010000 0.077600
v 0.282900 -0.007100 0.075800
v 0.280100 0.000000 0.075100
v 0.282900 0.007100 0.075800
v 0.289800 0.010000 0.077600
v 0.296600 0.007100 0.079500
v 0.268500 0.000000 0.155000
v 0.265900 -0.007100 0.153500
v 0.259800 -0.010000 0.150000
v 0.253700 -0.007100 0.146500
v 0.251100 0.000000 0.145000
v 0.253700 0.007100 0.146500
v 0.259800 0.010000 0.150000
v 0.265900 0.007100 0.153500
v 0.219200 0.000000 0.219200
v 0.217100 -0.007100 0.217100
v 0.212100 -0.010000 0.212100
v 0.207100 -0.007100 0.207100
v 0.205100 0.000000 0.205100
v 0.207100 0.007100 0.207100
v 0.212100 0.010000 0.212100
v 0.217100 0.007100 0.217100
v 0.155000 0.000000 0.268500
v 0.153500 -0.007100 0.265900
v 0.150000 -0.010000 0.259800
v 0.146500 -0.007100 0.253700
v 0.145000 0.000000 0.251100
v 0.146500 0.007100 0.253700
v 0.150000 0.010000 0.259800
v 0.153500 0.007100 0.265900
v 0.080200 0.000000 0.299400
v 0.079500 -0.007100 0.296600
v 0.077600 -0.010000 0.289800
v 0.075800 -0.007100 0.282900
v 0.075100 0.000000 0.280100
v 0.075800 0.007100 0.282900
v 0.077600 0.010000 0.289800
v 0.079500 0.007100 0.296600
v 0.000000 0.000000 0.310000
v 0.000000 -0.007100 0.307100
v 0.000000 -0.010000 0.300000
v 0.000000 -0.007100 0.292900
v 0.000000 0.000000 0.290000
v 0.000000 0.007100 0.292900
v 0.000000 0.010000 0.300000
v 0.000000 0.007100 0.307100
v -0.080200 0.000000 0.299400
v -0.079500 -0.007100 0.296600
v -0.077600 -0.010000 0.289800
v -0.075800 -0.007100 0.282900
v -0.075100 0.000000 0.280100
v -0.075800 0.007100 0.282900
v -0.077600 0.010000 0.289800
v -0.079500 0.007100 0.296600
v -0.155000 0.000000 0.268500
v -0.153500 -0.007100 0.265900
v -0.150000 -0.010000 0.259800
v -0.146500 -0.007100 0.253700
v -0.145000 0.000000 0.251100
v -0.146500 0.007100 0.253700
v -0.150000 0.010000 0.259800
v -0.153500 0.007100 0.265900
v -0.219200 0.000000 0.219200
v -0.217100 -0.007100 0.217100
v -0.212100 -0.010000 0.212100
v -0.207100 -0.007100 0.207100
v -0.205100 0.000000 0.205100
v -0.207100 0.007100 0.207100
v -0.212100 0.010000 0.212100
v -0.217100 0.007100 0.217100
v -0.268500 0.000000 0.155000
v -0.265900 -0.007100 0.153500
v -0.259800 -0.010000 0.150000
v -0.253700 -0.007100 0.146500
v -0.251100 0.000000 0.145000
v -0.253700 0.007100 0.146500
v -0.259800 0.010000 0.150000
v -0.265900 0.007100 0.153500
v -0.299400 0.000000 0.080200
v -0.296600 -0.007100 0.079500
v -0.289800 -0.010000 0.077600
v -0.282900 -0.007100 0.075800
v -0.280100 0.000000 0.075100
v -0.282900 0.007100 0.075800
v -0.289800 0.010000 0.077600
v -0.296600 0.007100 0.079500
v -0.310000 0.000000 0.000000
v -0.307100 -0.007100 0.000000
v -0.300000 -0.010000 0.000000
v -0.292900 -0.007100 0.000000
v -0.290000 0.000000 0.000000
v -0.292900 0.007100 -0.000000
v -0.300000 0.010000 -0.000000
v -0.307100 0.007100 -0.000000
v -0.299400 -0.000000 -0.080200
v -0.296600 -0.007100 -0.079500
v -0.289800 -0.010000 -0.077600
v -0.282900 -0.007100 -0.075800
v -0.280100 -0.000000 -0.075100
v -0.282900 0.007100 -0.075800
v -0.289800 0.010000 -0.077600
v -0.296600 0.007100 -0.079500
v -0.268500 -0.000000 -0.155000
v -0.265900 -0.007100 -0.153500
v -0.259800 -0.010000 -0.150000
v -0.253700 -0.007100 -0.146500
v -0.251100 -0.000000 -0.145000
v -0.253700 0.007100 -0.146500
v -0.259800 0.010000 -0.150000
v -0.265900 0.007100 -0.153500
v -0.219200 -0.000000 -0.219200
v -0.217100 -0.007100 -0.217100
v -0.212100 -0.010000 -0.212100
v -0.207100 -0.007100 -0.207100
v -0.205100 -0.000000 -0.205100
v -0.207100 0.007100 -0.207100
v -0.212100 0.010000 -0.212100
v -0.217100 0.007100 -0.217100
v -0.155000 -0.000000 -0.268500
v -0.153500 -0.007100 -0.265900
v -0.150000 -0.010000 -0.259800
v -0.146500 -0.007100 -0.253700
v -0.145000 -0.000000 -0.251100
v -0.146500 0.007100 -0.253700
v -0.150000 0.010000 -0.259800
v -0.153500 0.007100 -0.265900
v -0.080200 -0.000000 -0.299400
v -0.079500 -0.007100 -0.296600
v -0.077600 -0.010000 -0.289800
v -0.075800 -0.007100 -0.282900
v -0.075100 -0.000000 -0.280100
v -0.075800 0.007100 -0.282900
v -0.077600 0.010000 -0.289800
v -0.079500 0.007100 -0.296600
v 0.000000 -0.000000 -0.310000
v 0.000000 -0.007100 -0.307100
v 0.000000 -0.010000 -0.300000
v 0.000000 -0.007100 -0.292900
v 0.000000 -0.000000 -0.290000
v 0.000000 0.007100 -0.292900
v 0.000000 0.010000 -0.300000
v 0.000000 0.007100 -0.307100
v 0.080200 -0.000000 -0.299400
v 0.079500 -0.007100 -0.296600
v 0.077600 -0.010000 -0.289800
v 0.075800 -0.007100 -0.282900
v 0.075100 -0.000000 -0.280100
v 0.075800 0.007100 -0.282900
v 0.077600 0.010000 -0.289800
v 0.079500 0.007100 -0.296600
v 0.155000 -0.000000 -0.268500
v 0.153500 -0.007100 -0.265900
v 0.150000 -0.010000 -0.259800
v 0.146500 -0.007100 -0.253700
v 0.145000 -0.000000 -0.251100
v 0.146500 0.007100 -0.253700
v 0.150000 0.010000 -0.259800
v 0.153500 0.007100 -0.265900
v 0.219200 -0.000000 -0.219200
v 0.217100 -0.007100 -0.217100
v 0.212100 -0.010000 -0.212100
v 0.207100 -0.007100 -0.207100
v 0.205100 -0.000000 -0.205100
v 0.207100 0.007100 -0.207100
v 0.212100 0.010000 -0.212100
v 0.217100 0.007100 -0.217100
v 0.268500 -0.000000 -0.155000
v 0.265900 -0.007100 -0.153500
v 0.259800 -0.010000 -0.150000
v 0.253700 -0.007100 -0.146500
v 0.251100 -0.000000 -0.145000
v 0.253700 0.007100 -0.146500
v 0.259800 0.010000 -0.150000
v 0.265900 0.007100 -0.153500
v 0.299400 -0.000000 -0.080200
v 0.296600 -0.007100 -0.079500
v 0.289800 -0.010000 -0.077600
v 0.282900 -0.007100 -0.075800
v 0.280100 -0.000000 -0.075100
v 0.282900 0.007100 -0.075800
v 0.289800 0.010000 -0.077600
v 0.296600 0.007100 -0.079500
vt 1.000000 1.000000
vt 0.958333 1.000000
vt 0.958333 0.875000
vt 1.000000 0.875000
vt 0.958333 0.750000
vt 1.000000 0.750000
vt 0.958333 0.625000
vt 1.000000 0.625000
vt 0.958333 0.500000
vt 1.000000 0.500000
vt 0.958333 0.375000
vt 1.000000 0.375000
vt 0.958333 0.250000
vt 1.000000 0.250000
vt 0.958333 0.125000
vt 1.000000 0.125000
vt 0.958333 0.000000
vt 1.000000 0.000000
vt 0.916667 1.000000
vt 0.916667 0.875000
vt 0.916667 0.750000
vt 0.916667 0.625000
vt 0.916667 0.500000
vt 0.916667 0.375000
vt 0.916667 0.250000
vt 0.916667 0.125000
vt 0.916667 0.000000
vt 0.875000 1.000000
vt 0.875000 0.875000
vt 0.875000 0.750000
vt 0.875000 0.625000
vt 0.875000 0.500000
vt 0.875000 0.375000
vt 0.875000 0.250000
vt 0.875000 0.125000
vt 0.875000 0.000000
vt 0.833333 1.000000
vt 0.833333 0.875000
vt 0.833333 0.750000
vt 0.833333 0.625000
vt 0.833333 0.500000
vt 0.833333 0.375000
vt 0.833333 0.250000
vt 0.833333 0.125000
vt 0.833333 0.000000
vt 0.791667 1.000000
vt 0.791667 0.875000
vt 0.791667 0.750000
vt 0.791667 0.625000
vt 0.791667 0.500000
vt 0.791667 0.375000
vt 0.791667 0.250000
vt 0.791667 0.125000
vt 0.791667 0.000000
vt 0.750000 1.000000
vt 0.750000 0.875000
vt 0.750000 0.750000
vt 0.750000 0.625000
vt 0.750000 0.500000
vt 0.750000 0.375000
vt 0.750000 0.250000
vt 0.750000 0.125000
vt 0.750000 0.000000
vt 0.708333 1.000000
vt 0.708333 0.875000
vt 0.708333 0.750000
vt 0.708333 0.625000
vt 0.708333 0.500000
vt 0.708333 0.375000
vt 0.708333 0.250000
vt 0.708333 0.125000
vt 0.708333 0.000000
vt 0.666667 1.000000
vt 0.666667 0.875000
vt 0.666667 0.750000
vt 0.666667 0.625000
vt 0.666667 0.500000
vt 0.666667 0.375000
vt 0.666667 0.250000
vt 0.666667 0.125000
vt 0.666667 0.000000
vt 0.625000 1.000000
vt 0.625000 0.875000
vt 0.625000 0.750000
vt 0.625000 0.625000
vt 0.625000 0.500000
vt 0.625000 0.375000
vt 0.625000 0.250000
vt 0.625000 0.125000
vt 0.625000 0.000000
vt 0.583333 1.000000
vt 0.583333 0.875000
vt 0.583333 0.750000
vt 0.583333 0.625000
vt 0.583333 0.500000
vt 0.583333 0.375000
vt 0.583333 0.250000
vt 0.583333 0.125000
vt 0.583333 0.000000
vt 0.541667 1.000000
vt 0.541667 0.875000
vt 0.541667 0.750000
vt 0.541667 0.625000
vt 0.541667 0.500000
vt 0.541667 0.375000
vt 0.541667 0.250000
vt 0.541667 0.125000
vt 0.541667 0.000000
vt 0.500000 1.000000
vt 0.500000 0.875000
vt 0.500000 0.750000
vt 0.500000 0.625000
vt 0.500000 0.500000
vt 0.500000 0.375000
vt 0.500000 0.250000
vt 0.500000 0.125000
vt 0.500000 0.000000
vt 0.458333 1.000000
vt 0.458333 0.875000
vt 0.458333 0.750000
vt 0.458333 0.625000
vt 0.458333 0.500000
vt 0.458333 0.375000
vt 0.458333 0.250000
vt 0.458333 0.125000
vt 0.458333 0.000000
vt 0.416667 1.000000
vt 0.416667 0.875000
vt 0.416667 0.750000
vt 0.416667 0.625000
vt 0.416667 0.500000
vt 0.416667 0.375000
vt 0.416667 0.250000
vt 0.416667 0.125000
vt 0.416667 0.000000
vt 0.375000 1.000000
vt 0.375000 0.875000
vt 0.375000 0.750000
vt 0.375000 0.625000
vt 0.375000 0.500000
vt 0.375000 0.375000
vt 0.375000 0.250000
vt 0.375000 0.125000
vt 0.375000 0.000000
vt 0.333333 1.000000
vt 0.333333 0.875000
vt 0.333333 0.750000
vt 0.333333 0.625000
vt 0.333333 0.500000
vt 0.333333 0.375000
vt 0.333333 0.250000
vt 0.333333 0.125000
vt 0.333333 0.000000
vt 0.291667 1.000000
vt 0.291667 0.875000
vt 0.291667 0.750000
vt 0.291667 0.625000
vt 0.291667 0.500000
vt 0.291667 0.375000
vt 0.291667 0.250000
vt 0.291667 0.125000
vt 0.291667 0.000000
vt 0.250000 1.000000
vt 0.250000 0.875000
vt 0.250000 0.750000
vt 0.250000 0.625000
vt 0.250000 0.500000
vt 0.250000 0.375000
vt 0.250000 0.250000
vt 0.250000 0.125000
vt 0.250000 0.000000
vt 0.208333 1.000000
vt 0.208333 0.875000
vt 0.208333 0.750000
vt 0.208333 0.625000
vt 0.208333 0.500000
vt 0.208333 0.375000
vt 0.208333 0.250000
vt 0.208333 0.125000
vt 0.208333 0.000000
vt 0.166667 1.000000
vt 0.166667 0.875000
vt 0.166667 0.750000
vt 0.166667 0.625000
vt 0.166667 0.500000
vt 0.166667 0.375000
vt 0.166667 0.250000
vt 0.166667 0.125000
vt 0.166667 0.000000
vt 0.125000 1.000000
vt 0.125000 0.875000
vt 0.125000 0.750000
vt 0.125000 0.625000
vt 0.125000 0.500000
vt 0.125000 0.375000
vt 0.125000 0.250000
vt 0.125000 0.125000
vt 0.125000 0.000000
vt 0.083333 1.000000
vt 0.083333 0.875000
vt 0.083333 0.750000
vt 0.083333 0.625000
vt 0.083333 0.500000
vt 0.083333 0.375000
vt 0.083333 0.250000
vt 0.083333 0.125000
vt 0.083333 0.000000
vt 0.041667 1.000000
vt 0.041667 0.875000
vt 0.041667 0.750000
vt 0.041667 0.625000
vt 0.041667 0.500000
vt 0.041667 0.375000
vt 0.041667 0.250000
vt 0.041667 0.125000
vt 0.041667 0.000000
vt 0.000000 1.000000
vt 0.000000 0.875000
vt 0.000000 0.750000
vt 0.000000 0.625000
vt 0.000000 0.500000
vt 0.000000 0.375000
vt 0.000000 0.250000
vt 0.000000 0.125000
vt 0.000000 0.000000
vn 1.000000 0.000000 0.000000
vn 0.965900 -0.000000 0.258900
vn 0.682000 -0.708200 0.182800
vn 0.706800 -0.707400 -0.000000
vn 0.000800 -1.000000 0.000300
vn 0.001100 -1.000000 -0.000000
vn -0.681400 -0.708800 -0.182500
vn -0.706000 -0.708200 -0.000000
vn -0.965900 0.000000 -0.258800
vn -1.000000 0.000000 0.000000
vn -0.681400 0.708800 -0.182500
vn -0.706000 0.708200 0.000000
vn 0.000800 1.000000 0.000300
vn 0.001100 1.000000 0.000000
vn 0.682000 0.708200 0.182800
vn 0.706800 0.707400 -0.000000
vn 0.866100 -0.000000 0.499900
vn 0.610000 -0.709800 0.352200
vn 0.000300 -1.000000 0.000200
vn -0.611100 -0.708600 -0.352800
vn -0.866100 0.000000 -0.499900
vn -0.611100 0.708600 -0.352800
vn 0.000300 1.000000 0.000200
vn 0.610000 0.709800 0.352200
vn 0.707100 0.000000 0.707100
vn 0.497400 -0.710700 0.497400
vn 0.000000 -1.000000 0.000000
vn -0.499500 -0.707800 -0.499500
vn -0.707100 0.000000 -0.707100
vn -0.499500 0.707800 -0.499500
vn 0.000000 1.000000 0.000000
vn 0.497400 0.710700 0.497400
vn 0.499900 0.000000 0.866100
vn 0.352200 -0.709800 0.610000
vn 0.000200 -1.000000 0.000300
vn -0.352800 -0.708600 -0.611100
vn -0.499900 0.000000 -0.866100
vn -0.352800 0.708600 -0.611100
vn 0.000200 1.000000 0.000300
vn 0.352200 0.709800 0.610000
vn 0.258800 -0.000000 0.965900
vn 0.182800 -0.708200 0.682000
vn 0.000300 -1.000000 0.000800
vn -0.182500 -0.708800 -0.681400
vn -0.258700 -0.000000 -0.966000
vn -0.182500 0.708800 -0.681400
vn 0.000300 1.000000 0.000800
vn 0.182800 0.708200 0.682000
vn 0.000000 0.000000 1.000000
vn 0.000000 -0.707400 0.706800
vn -0.000000 -1.000000 0.001100
vn 0.000000 -0.708200 -0.706000
vn 0.000000 0.000000 -1.000000
vn 0.000000 0.708200 -0.706000
vn -0.000000 1.000000 0.001100
vn 0.000000 0.707400 0.706800
vn -0.258900 -0.000000 0.965900
vn -0.182800 -0.708200 0.682000
vn -0.000300 -1.000000 0.000800
vn 0.182500 -0.708800 -0.681400
vn 0.258700 0.000000 -0.966000
vn 0.182500 0.708800 -0.681400
vn -0.000300 1.000000 0.000800
vn -0.182800 0.708200 0.682000
vn -0.499900 -0.000000 0.866100
vn -0.352200 -0.709800 0.610000
vn -0.000200 -1.000000 0.000300
vn 0.352800 -0.708600 -0.611100
vn 0.499900 0.000000 -0.866100
vn 0.352800 0.708600 -0.611100
vn -0.000200 1.000000 0.000300
vn -0.352200 0.709800 0.610000
vn -0.707100 -0.000000 0.707100
vn -0.497400 -0.710700 0.497400
vn 0.499500 -0.707800 -0.499500
vn 0.707100 0.000000 -0.707100
vn 0.499500 0.707800 -0.499500
vn -0.497400 0.710700 0.497400
vn -0.866100 -0.000000 0.499900
vn -0.610000 -0.709800 0.352200
vn -0.000300 -1.000000 0.000200
vn 0.611100 -0.708600 -0.352800
vn 0.866100 0.000000 -0.499900
vn 0.611100 0.708600 -0.352800
vn -0.000300 1.000000 0.000200
vn -0.610000 0.709800 0.352200
vn -0.965900 0.000000 0.258800
vn -0.682000 -0.708200 0.182800
vn -0.000800 -1.000000 0.000300
vn 0.681400 -0.708800 -0.182500
vn 0.965900 0.000000 -0.258800
vn 0.681400 0.708800 -0.182500
vn -0.000800 1.000000 0.000300
vn -0.682000 0.708200 0.182800
vn -0.706800 -0.707400 0.000000
vn -0.001100 -1.000000 -0.000000
vn 0.706000 -0.708200 0.000000
vn 0.706000 0.708200 0.000000
vn -0.001100 1.000000 -0.000000
vn -0.706800 0.707400 0.000000
vn -0.965900 -0.000000 -0.258900
vn -0.682000 -0.708200 -0.182800
vn -0.000800 -1.000000 -0.000300
vn 0.681400 -0.708800 0.182500
vn 0.965900 0.000000 0.258800
vn 0.681400 0.708800 0.182500
vn -0.000800 1.000000 -0.000300
vn -0.682000 0.708200 -0.182800
vn -0.610000 -0.709800 -0.352200
vn -0.000300 -1.000000 -0.000200
vn 0.611100 -0.708600 0.352800
vn 0.611100 0.708600 0.352800
vn -0.000300 1.000000 -0.000200
vn -0.610000 0.709800 -0.352200
vn -0.497400 -0.710700 -0.497400
vn 0.499500 -0.707800 0.499500
vn 0.499500 0.707800 0.499500
vn -0.497400 0.710700 -0.497400
vn -0.352200 -0.709800 -0.610000
vn -0.000200 -1.000000 -0.000300
vn 0.352800 -0.708600 0.611100
vn 0.352800 0.708600 0.611100
vn -0.000200 1.000000 -0.000300
vn -0.352200 0.709800 -0.610000
vn -0.258800 -0.000000 -0.965900
vn -0.182800 -0.708200 -0.682000
vn -0.000300 -1.000000 -0.000800
vn 0.182500 -0.708800 0.681400
vn 0.258700 0.000000 0.966000
vn 0.182500 0.708800 0.681400
vn -0.000300 1.000000 -0.000800
vn -0.182800 0.708200 -0.682000
vn -0.000000 -0.707400 -0.706800
vn 0.000000 -1.000000 -0.001100
vn -0.000000 -0.708200 0.706000
vn -0.000000 0.708200 0.706000
vn 0.000000 1.000000 -0.001100
vn -0.000000 0.707400 -0.706800
vn 0.258900 -0.000000 -0.965900
vn 0.182800 -0.708200 -0.682000
vn 0.000300 -1.000000 -0.000800
vn -0.182500 -0.708800 0.681400
vn -0.258700 0.000000 0.966000
vn -0.182500 0.708800 0.681400
vn 0.000300 1.000000 -0.000800
vn 0.182800 0.708200 -0.682000
vn 0.352200 -0.709800 -0.610000
vn 0.000200 -1.000000 -0.000300
vn -0.352800 -0.708600 0.611100
vn -0.352800 0.708600 0.611100
vn 0.000200 1.000000 -0.000300
vn 0.352200 0.709800 -0.610000
vn 0.497400 -0.710700 -0.497400
vn -0.499500 -0.707800 0.499500
vn -0.499500 0.707800 0.499500
vn 0.497400 0.710700 -0.497400
vn 0.610000 -0.709800 -0.352200
vn 0.000300 -1.000000 -0.000200
vn -0.611100 -0.708600 0.352800
vn -0.611100 0.708600 0.352800
vn 0.000300 1.000000 -0.000200
vn 0.610000 0.709800 -0.352200
vn 0.682000 -0.708200 -0.182800
vn 0.000800 -1.000000 -0.000300
vn -0.681400 -0.708800 0.182500
vn -0.681400 0.708800 0.182500
vn 0.000800 1.000000 -0.000300
vn 0.682000 0.708200 -0.182800
usemtl b0b0b0
s 1
f 1/1/1 9/2/2 10/3/3 2/4/4
f 2/4/4 10/3/3 11/5/5 3/6/6
f 3/6/6 11/5/5 12/7/7 4/8/8
f 4/8/8 12/7/7 13/9/9 5/10/10
f 5/10/10 13/9/9 14/11/11 6/12/12
f 6/12/12 14/11/11 15/13/13 7/14/14
f 7/14/14 15/13/13 16/15/15 8/16/16
f 8/16/16 16/15/15 9/17/2 1/18/1
f 9/2/2 17/19/17 18/20/18 10/3/3
f 10/3/3 18/20/18 19/21/19 11/5/5
f 11/5/5 19/21/19 20/22/20 12/7/7
f 12/7/7 20/22/20 21/23/21 13/9/9
f 13/9/9 21/23/21 22/24/22 14/11/11
f 14/11/11 22/24/22 23/25/23 15/13/13
f 15/13/13 23/25/23 24/26/24 16/15/15
f 16/15/15 24/26/24 17/27/17 9/17/2
f 17/19/17 25/28/25 26/29/26 18/20/18
f 18/20/18 26/29/26 27/30/27 19/21/19
f 19/21/19 27/30/27 28/31/28 20/22/20
f 20/22/20 28/31/28 29/32/29 21/23/21
f 21/23/21 29/32/29 30/33/30 22/24/22
f 22/24/22 30/33/30 31/34/31 23/25/23
f 23/25/23 31/34/31 32/35/32 24/26/24
f 24/26/24 32/35/32 25/36/25 17/27/17
f 25/28/25 33/37/33 34/38/34 26/29/26
f 26/29/26 34/38/34 35/39/35 27/30/27
f 27/30/27 35/39/35 36/40/36 28/31/28
f 28/31/28 36/40/36 37/41/37 29/32/29
f 29/32/29 37/41/37 38/42/38 30/33/30
f 30/33/30 38/42/38 39/43/39 31/34/31
f 31/34/31 39/43/39 40/44/40 32/35/32
f 32/35/32 40/44/40 33/45/33 25/36/25
f 33/37/33 41/46/41 42/47/42 34/38/34
f 34/38/34 42/47/42 43/48/43 35/39/35
f 35/39/35 43/48/43 44/49/44 36/40/36
f 36/40/36 44/49/44 45/50/45 37/41/37
f 37/41/37 45/50/45 46/51/46 38/42/38
f 38/42/38 46/51/46 47/52/47 39/43/39
f 39/43/39 47/52/47 48/53/48 40/44/40
f 40/44/40 48/53/48 41/54/41 33/45/33
f 41/46/41 49/55/49 50/56/50 42/47/42
f 42/47/42 50/56/50 51/57/51 43/48/43
f 43/48/43 51/57/51 52/58/52 44/49/44
f 44/49/44 52/58/52 53/59/53 45/50/45
f 45/50/45 53/59/53 54/60/54 46/51/46
f 46/51/46 54/60/54 55/61/55 47/52/47
f 47/52/47 55/61/55 56/62/56 48/53/48
f 48/53/48 56/62/56 49/63/49 41/54/41
f 49/55/49 57/64/57 58/65/58 50/56/50
f 50/56/50 58/65/58 59/66/59 51/57/51
f 51/57/51 59/66/59 60/67/60 52/58/52
f 52/58/52 60/67/60 61/68/61 53/59/53
f 53/59/53 61/68/61 62/69/62 54/60/54
f 54/60/54 62/69/62 63/70/63 55/61/55
f 55/61/55 63/70/63 64/71/64 56/62/56
f 56/62/56 64/71/64 57/72/57 49/63/49
f 57/64/57 65/73/65 66/74/66 58/65/58
f 58/65/58 66/74/66 67/75/67 59/66/59
f 59/66/59 67/75/67 68/76/68 60/67/60
f 60/67/60 68/76/68 69/77/69 61/68/61
f 61/68/61 69/77/69 70/78/70 62/69/62
f 62/69/62 70/78/70 71/79/71 63/70/63
f 63/70/63 71/79/71 72/80/72 64/71/64
f 64/71/64 72/80/72 65/81/65 57/72/57
f 65/73/65 73/82/73 74/83/74 66/74/66
f 66/74/66 74/83/74 75/84/27 67/75/67
f 67/75/67 75/84/27 76/85/75 68/76/68
f 68/76/68 76/85/75 77/86/76 69/77/69
f 69/77/69 77/86/76 78/87/77 70/78/70
f 70/78/70 78/87/77 79/88/31 71/79/71
f 71/79/71 79/88/31 80/89/78 72/80/72
f 72/80/72 80/89/78 73/90/73 65/81/65
f 73/82/73 81/91/79 82/92/80 74/83/74
f 74/83/74 82/92/80 83/93/81 75/84/27
f 75/84/27 83/93/81 84/94/82 76/85/75
f 76/85/75 84/94/82 85/95/83 77/86/76
f 77/86/76 85/95/83 86/96/84 78/87/77
f 78/87/77 86/96/84 87/97/85 79/88/31
f 79/88/31 87/97/85 88/98/86 80/89/78
f 80/89/78 88/98/86 81/99/79 73/90/73
f 81/91/79 89/100/87 90/101/88 82/92/80
f 82/92/80 90/101/88 91/102/89 83/93/81
f 83/93/81 91/102/89 92/103/90 84/94/82
f 84/94/82 92/103/90 93/104/91 85/95/83
f 85/95/83 93/104/91 94/105/92 86/96/84
f 86/96/84 94/105/92 95/106/93 87/97/85
f 87/97/85 95/106/93 96/107/94 88/98/86
f 88/98/86 96/107/94 89/108/87 81/99/79
f 89/100/87 97/109/10 98/110/95 90/101/88
f 90/101/88 98/110/95 99/111/96 91/102/89
f 91/102/89 99/111/96 100/112/97 92/103/90
f 92/103/90 100/112/97 101/113/1 93/104/91
f 93/104/91 101/113/1 102/114/98 94/105/92
f 94/105/92 102/114/98 103/115/99 95/106/93
f 95/106/93 103/115/99 104/116/100 96/107/94
f 96/107/94 104/116/100 97/117/10 89/108/87
f 97/109/10 105/118/101 106/119/102 98/110/95
f 98/110/95 106/119/102 107/120/103 99/111/96
f 99/111/96 107/120/103 108/121/104 100/112/97
f 100/112/97 108/121/104 109/122/105 101/113/1
f 101/113/1 109/122/105 110/123/106 102/114/98
f 102/114/98 110/123/106 111/124/107 103/115/99
f 103/115/99 111/124/107 112/125/108 104/116/100
f 104/116/100 112/125/108 105/126/101 97/117/10
f 105/118/101 113/127/21 114/128/109 106/119/102
f 106/119/102 114/128/109 115/129/110 107/120/103
f 107/120/103 115/129/110 116/130/111 108/121/104
f 108/121/104 116/130/111 117/131/17 109/122/105
f 109/122/105 117/131/17 118/132/112 110/123/106
f 110/123/106 118/132/112 119/133/113 111/124/107
f 111/124/107 119/133/113 120/134/114 112/125/108
f 112/125/108 120/134/114 113/135/21 105/126/101
f 113/127/21 121/136/29 122/137/115 114/128/109
f 114/128/109 122/137/115 123/138/27 115/129/110
f 115/129/110 123/138/27 124/139/116 116/130/111
f 116/130/111 124/139/116 125/140/25 117/131/17
f 117/131/17 125/140/25 126/141/117 118/132/112
f 118/132/112 126/141/117 127/142/31 119/133/113
f 119/133/113 127/142/31 128/143/118 120/134/114
f 120/134/114 128/143/118 121/144/29 113/135/21
f 121/136/29 129/145/37 130/146/119 122/137/115
f 122/137/115 130/146/119 131/147/120 123/138/27
f 123/138/27 131/147/120 132/148/121 124/139/116
f 124/139/116 132/148/121 133/149/33 125/140/25
f 125/140/25 133/149/33 134/150/122 126/141/117
f 126/141/117 134/150/122 135/151/123 127/142/31
f 127/142/31 135/151/123 136/152/124 128/143/118
f 128/143/118 136/152/124 129/153/37 121/144/29
f 129/145/37 137/154/125 138/155/126 130/146/119
f 130/146/119 138/155/126 139/156/127 131/147/120
f 131/147/120 139/156/127 140/157/128 132/148/121
f 132/148/121 140/157/128 141/158/129 133/149/33
f 133/149/33 141/158/129 142/159/130 134/150/122
f 134/150/122 142/159/130 143/160/131 135/151/123
f 135/151/123 143/160/131 144/161/132 136/152/124
f 136/152/124 144/161/132 137/162/125 129/153/37
f 137/154/125 145/163/53 146/164/133 138/155/126
f 138/155/126 146/164/133 147/165/134 139/156/127
f 139/156/127 147/165/134 148/166/135 140/157/128
f 140/157/128 148/166/135 149/167/49 141/158/129
f 141/158/129 149/167/49 150/168/136 142/159/130
f 142/159/130 150/168/136 151/169/137 143/160/131
f 143/160/131 151/169/137 152/170/138 144/161/132
f 144/161/132 152/170/138 145/171/53 137/162/125
f 145/163/53 153/172/139 154/173/140 146/164/133
f 146/164/133 154/173/140 155/174/141 147/165/134
f 147/165/134 155/174/141 156/175/142 148/166/135
f 148/166/135 156/175/142 157/176/143 149/167/49
f 149/167/49 157/176/143 158/177/144 150/168/136
f 150/168/136 158/177/144 159/178/145 151/169/137
f 151/169/137 159/178/145 160/179/146 152/170/138
f 152/170/138 160/179/146 153/180/139 145/171/53
f 153/172/139 161/181/69 162/182/147 154/173/140
f 154/173/140 162/182/147 163/183/148 155/174/141
f 155/174/141 163/183/148 164/184/149 156/175/142
f 156/175/142 164/184/149 165/185/65 157/176/143
f 157/176/143 165/185/65 166/186/150 158/177/144
f 158/177/144 166/186/150 167/187/151 159/178/145
f 159/178/145 167/187/151 168/188/152 160/179/146
f 160/179/146 168/188/152 161/189/69 153/180/139
f 161/181/69 169/190/76 170/191/153 162/182/147
f 162/182/147 170/191/153 171/192/27 163/183/148
f 163/183/148 171/192/27 172/193/154 164/184/149
f 164/184/149 172/193/154 173/194/73 165/185/65
f 165/185/65 173/194/73 174/195/155 166/186/150
f 166/186/150 174/195/155 175/196/31 167/187/151
f 167/187/151 175/196/31 176/197/156 168/188/152
f 168/188/152 176/197/156 169/198/76 161/189/69
f 169/190/76 177/199/83 178/200/157 170/191/153
f 170/191/153 178/200/157 179/201/158 171/192/27
f 171/192/27 179/201/158 180/202/159 172/193/154
f 172/193/154 180/202/159 181/203/79 173/194/73
f 173/194/73 181/203/79 182/204/160 174/195/155
f 174/195/155 182/204/160 183/205/161 175/196/31
f 175/196/31 183/205/161 184/206/162 176/197/156
f 176/197/156 184/206/162 177/207/83 169/198/76
f 177/199/83 185/208/91 186/209/163 178/200/157
f 178/200/157 186/209/163 187/210/164 179/201/158
f 179/201/158 187/210/164 188/211/165 180/202/159
f 180/202/159 188/211/165 189/212/87 181/203/79
f 181/203/79 189/212/87 190/213/166 182/204/160
f 182/204/160 190/213/166 191/214/167 183/205/161
f 183/205/161 191/214/167 192/215/168 184/206/162
f 184/206/162 192/215/168 185/216/91 177/207/83
f 185/208/91 1/217/1 2/218/4 186/209/163
f 186/209/163 2/218/4 3/219/6 187/210/164
f 187/210/164 3/219/6 4/220/8 188/211/165
f 188/211/165 4/220/8 5/221/10 189/212/87
f 189/212/87 5/221/10 6/222/12 190/213/166
f 190/213/166 6/222/12 7/223/14 191/214/167
f 191/214/167 7/223/14 8/224/16 192/215/168
f 192/215/168 8/224/16 1/225/1 185/216/91
