# Blender v2.74 (sub 0) OBJ File: ''
# www.blender.org
mtllib gizmo-handletranslate.mtl
o Merged_Meshes
v 0.000000 0.900000 0.010000
v 0.007100 0.900000 0.007100
v 0.010000 0.900000 0.000000
v 0.007100 0.900000 -0.007100
v 0.000000 0.900000 -0.010000
v -0.007100 0.900000 -0.007100
v -0.010000 0.900000 0.000000
v -0.007100 0.900000 0.007100
v 0.000000 0.000000 0.010000
v 0.007100 0.000000 0.007100
v 0.010000 0.000000 0.000000
v 0.007100 0.000000 -0.007100
v 0.000000 0.000000 -0.010000
v -0.007100 0.000000 -0.007100
v -0.010000 0.000000 0.000000
v -0.007100 0.000000 0.007100
v 0.000000 0.900000 0.000000
v 0.000000 0.000000 0.000000
v 0.000000 1.000000 0.000000
v 0.000000 0.900000 0.040000
v 0.020000 0.900000 0.034600
v 0.034600 0.900000 0.020000
v 0.040000 0.900000 0.000000
v 0.034600 0.900000 -0.020000
v 0.020000 0.900000 -0.034600
v 0.000000 0.900000 -0.040000
v -0.020000 0.900000 -0.034600
v -0.034600 0.900000 -0.020000
v -0.040000 0.900000 0.000000
v -0.034600 0.900000 0.020000
v -0.020000 0.900000 0.034600
v 0.000000 0.900000 0.000000
vt 0.000000 1.000000
vt 0.000000 0.000000
vt 0.125000 0.000000
vt 0.125000 1.000000
vt 0.250000 0.000000
vt 0.250000 1.000000
vt 0.375000 0.000000
vt 0.375000 1.000000
vt 0.500000 0.000000
vt 0.500000 1.000000
vt 0.625000 0.000000
vt 0.625000 1.000000
vt 0.750000 0.000000
vt 0.750000 1.000000
vt 0.875000 0.000000
vt 0.875000 1.000000
vt 1.000000 0.000000
vt 1.000000 1.000000
vt 0.083333 0.000000
vt 0.083333 1.000000
vt 0.166667 0.000000
vt 0.166667 1.000000
vt 0.333333 0.000000
vt 0.333333 1.000000
vt 0.416667 0.000000
vt 0.416667 1.000000
vt 0.583333 0.000000
vt 0.583333 1.000000
vt 0.666667 0.000000
vt 0.666667 1.000000
vt 0.833333 0.000000
vt 0.833333 1.000000
vt 0.916667 0.000000
vt 0.916667 1.000000
vn 0.378100 0.000000 0.925800
vn 0.925800 0.000000 0.378100
vn 0.925800 0.000000 -0.378100
vn 0.378100 0.000000 -0.925800
vn -0.378100 0.000000 -0.925800
vn -0.925800 0.000000 -0.378100
vn -0.925800 0.000000 0.378100
vn -0.378100 0.000000 0.925800
vn 0.000000 1.000000 0.000000
vn 0.000000 -1.000000 0.000000
vn 0.050900 0.980700 0.188600
vn 0.000000 0.371400 0.928500
vn 0.465000 0.371100 0.803800
vn 0.803800 0.371100 0.465000
vn 0.928500 0.371400 0.000000
vn 0.803800 0.371100 -0.465000
vn 0.465000 0.371100 -0.803800
vn 0.000000 0.371400 -0.928500
vn -0.465000 0.371100 -0.803800
vn -0.803800 0.371100 -0.465000
vn -0.928500 0.371400 0.000000
vn -0.803800 0.371100 0.465000
vn -0.465000 0.371100 0.803800
usemtl b0b0b0
s 1
f 1/1/1 9/2/1 10/3/1 2/4/1
f 2/4/2 10/3/2 11/5/2 3/6/2
f 3/6/3 11/5/3 12/7/3 4/8/3
f 4/8/4 12/7/4 13/9/4 5/10/4
f 5/10/5 13/9/5 14/11/5 6/12/5
f 6/12/6 14/11/6 15/13/6 7/14/6
f 7/14/7 15/13/7 16/15/7 8/16/7
f 8/16/8 16/15/8 9/17/8 1/18/8
f 1/2/9 2/3/9 17/1/9
f 2/3/9 3/5/9 17/1/9
f 3/5/9 4/7/9 17/1/9
f 4/7/9 5/9/9 17/1/9
f 5/9/9 6/11/9 17/1/9
f 6/11/9 7/13/9 17/1/9
f 7/13/9 8/15/9 17/1/9
f 8/15/9 1/17/9 17/1/9
f 10/4/10 9/1/10 18/2/10
f 11/6/10 10/4/10 18/2/10
f 12/8/10 11/6/10 18/2/10
f 13/10/10 12/8/10 18/2/10
f 14/12/10 13/10/10 18/2/10
f 15/14/10 14/12/10 18/2/10
f 16/16/10 15/14/10 18/2/10
f 9/18/10 16/16/10 18/2/10
f 19/1/11 20/2/12 21/19/13
f 19/20/11 21/19/13 22/21/14
f 19/22/11 22/21/14 23/5/15
f 19/6/11 23/5/15 24/23/16
f 19/24/11 24/23/16 25/25/17
f 19/26/11 25/25/17 26/9/18
f 19/10/11 26/9/18 27/27/19
f 19/28/11 27/27/19 28/29/20
f 19/30/11 28/29/20 29/13/21
f 19/14/11 29/13/21 30/31/22
f 19/32/11 30/31/22 31/33/23
f 19/34/11 31/33/23 20/17/12
f 21/20/10 20/1/10 32/2/10
f 22/22/10 21/20/10 32/2/10
f 23/6/10 22/22/10 32/2/10
f 24/24/10 23/6/10 32/2/10
f 25/26/10 24/24/10 32/2/10
f 26/10/10 25/26/10 32/2/10
f 27/28/10 26/10/10 32/2/10
f 28/30/10 27/28/10 32/2/10
f 29/14/10 28/30/10 32/2/10
f 30/32/10 29/14/10 32/2/10
f 31/34/10 30/32/10 32/2/10
f 20/18/10 31/34/10 32/2/10
